<mxfile host="app.diagrams.net" modified="2024-06-11T15:03:24.856Z" agent="Mozilla/5.0 (Windows NT 10.0; Win64; x64) AppleWebKit/537.36 (KHTML, like Gecko) Chrome/124.0.0.0 Safari/537.36 OPR/110.0.0.0" etag="qn0R_0VgJu6-J2EqLVLO" version="24.5.2" type="github">
  <diagram name="Página-1" id="w9V2tbCyvy_jPQGBHvFj">
    <mxGraphModel dx="899" dy="356" grid="1" gridSize="10" guides="1" tooltips="1" connect="1" arrows="1" fold="1" page="1" pageScale="1" pageWidth="827" pageHeight="1169" math="0" shadow="0">
      <root>
        <mxCell id="0" />
        <mxCell id="1" parent="0" />
        <mxCell id="r61PQTojIXypBUC9wddS-17" value="" style="edgeStyle=orthogonalEdgeStyle;rounded=0;orthogonalLoop=1;jettySize=auto;html=1;entryX=0.5;entryY=0;entryDx=0;entryDy=0;" parent="1" source="r61PQTojIXypBUC9wddS-8" target="r61PQTojIXypBUC9wddS-25" edge="1">
          <mxGeometry relative="1" as="geometry">
            <mxPoint x="960" y="550" as="targetPoint" />
          </mxGeometry>
        </mxCell>
        <mxCell id="r61PQTojIXypBUC9wddS-8" value="&lt;p style=&quot;margin:0px;margin-top:4px;text-align:center;&quot;&gt;&lt;b&gt;Despesa&lt;/b&gt;&lt;/p&gt;&lt;hr size=&quot;1&quot; style=&quot;border-style:solid;&quot;&gt;&lt;p style=&quot;margin:0px;margin-left:4px;&quot;&gt;- valor: double&lt;/p&gt;&lt;p style=&quot;margin:0px;margin-left:4px;&quot;&gt;- date: Date&lt;/p&gt;&lt;p style=&quot;margin:0px;margin-left:4px;&quot;&gt;- descricao: String&lt;/p&gt;&lt;p style=&quot;margin:0px;margin-left:4px;&quot;&gt;- categoria: Categoria&lt;/p&gt;&lt;p style=&quot;margin:0px;margin-left:4px;&quot;&gt;________________________&lt;/p&gt;&lt;p style=&quot;margin:0px;margin-left:4px;&quot;&gt;&lt;br&gt;&lt;/p&gt;&lt;p style=&quot;margin: 0px 0px 0px 4px;&quot;&gt;+ getValor(): double&lt;/p&gt;&lt;p style=&quot;margin: 0px 0px 0px 4px;&quot;&gt;+ getData(): Date&lt;/p&gt;&lt;p style=&quot;margin: 0px 0px 0px 4px;&quot;&gt;+ getDescricao(): String&lt;/p&gt;&lt;p style=&quot;margin: 0px 0px 0px 4px;&quot;&gt;+ getCategoria(): Categoria&lt;/p&gt;&lt;p style=&quot;margin:0px;margin-left:4px;&quot;&gt;&lt;br&gt;&lt;/p&gt;" style="verticalAlign=top;align=left;overflow=fill;html=1;whiteSpace=wrap;" parent="1" vertex="1">
          <mxGeometry x="1120" y="280" width="160" height="200" as="geometry" />
        </mxCell>
        <mxCell id="r61PQTojIXypBUC9wddS-9" value="&lt;p style=&quot;margin:0px;margin-top:4px;text-align:center;&quot;&gt;&lt;b&gt;Categoria&lt;/b&gt;&lt;/p&gt;&lt;hr size=&quot;1&quot; style=&quot;border-style:solid;&quot;&gt;&lt;p style=&quot;margin:0px;margin-left:4px;&quot;&gt;- nome: string&lt;/p&gt;&lt;hr size=&quot;1&quot; style=&quot;border-style:solid;&quot;&gt;&lt;p style=&quot;margin:0px;margin-left:4px;&quot;&gt;+ getNome(): string&lt;/p&gt;" style="verticalAlign=top;align=left;overflow=fill;html=1;whiteSpace=wrap;" parent="1" vertex="1">
          <mxGeometry x="880" y="320" width="180" height="130" as="geometry" />
        </mxCell>
        <mxCell id="r61PQTojIXypBUC9wddS-35" value="" style="edgeStyle=orthogonalEdgeStyle;rounded=0;orthogonalLoop=1;jettySize=auto;html=1;" parent="1" source="r61PQTojIXypBUC9wddS-10" target="r61PQTojIXypBUC9wddS-20" edge="1">
          <mxGeometry relative="1" as="geometry" />
        </mxCell>
        <mxCell id="r61PQTojIXypBUC9wddS-10" value="&lt;p style=&quot;margin:0px;margin-top:4px;text-align:center;&quot;&gt;&lt;b&gt;Sistema de Finanças&lt;/b&gt;&lt;/p&gt;&lt;hr size=&quot;1&quot; style=&quot;border-style:solid;&quot;&gt;&lt;p style=&quot;margin:0px;margin-left:4px;&quot;&gt;- despesas: List&amp;lt;Despesas&amp;gt;&lt;/p&gt;&lt;p style=&quot;margin:0px;margin-left:4px;&quot;&gt;- metas: List&amp;lt;Meta&amp;gt;&lt;/p&gt;&lt;p style=&quot;margin:0px;margin-left:4px;&quot;&gt;- observadores: List&amp;lt;Observador&amp;gt;&lt;/p&gt;&lt;hr size=&quot;1&quot; style=&quot;border-style:solid;&quot;&gt;&lt;p style=&quot;margin:0px;margin-left:4px;&quot;&gt;+ adicionarDespesas(despesa: Despesa)&lt;/p&gt;&lt;p style=&quot;margin:0px;margin-left:4px;&quot;&gt;+ adicionarMeta(meta: Meta)&lt;/p&gt;&lt;p style=&quot;margin:0px;margin-left:4px;&quot;&gt;+ notificar()&lt;br&gt;+ getDespesas(): List&amp;lt;Despesa&amp;gt;&lt;/p&gt;&lt;p style=&quot;margin:0px;margin-left:4px;&quot;&gt;+ getMetas(): List&amp;lt;Meta&amp;gt;&lt;/p&gt;&lt;p style=&quot;margin:0px;margin-left:4px;&quot;&gt;+ addObserver(observer: Observer)&lt;/p&gt;" style="verticalAlign=top;align=left;overflow=fill;html=1;whiteSpace=wrap;" parent="1" vertex="1">
          <mxGeometry x="1340" y="190" width="200" height="200" as="geometry" />
        </mxCell>
        <mxCell id="r61PQTojIXypBUC9wddS-12" value="&lt;p style=&quot;margin:0px;margin-top:4px;text-align:center;&quot;&gt;&lt;b&gt;Meta&lt;/b&gt;&lt;/p&gt;&lt;hr size=&quot;1&quot; style=&quot;border-style:solid;&quot;&gt;&lt;p style=&quot;margin:0px;margin-left:4px;&quot;&gt;- valorMeta: double&lt;/p&gt;&lt;p style=&quot;margin:0px;margin-left:4px;&quot;&gt;- dataLimite: Date&lt;/p&gt;&lt;hr size=&quot;1&quot; style=&quot;border-style:solid;&quot;&gt;&lt;p style=&quot;margin:0px;margin-left:4px;&quot;&gt;+ getValorMeta(): double&lt;/p&gt;&lt;p style=&quot;margin:0px;margin-left:4px;&quot;&gt;+ getDataLimite(): Date&lt;/p&gt;" style="verticalAlign=top;align=left;overflow=fill;html=1;whiteSpace=wrap;" parent="1" vertex="1">
          <mxGeometry x="1120" y="120" width="160" height="120" as="geometry" />
        </mxCell>
        <mxCell id="r61PQTojIXypBUC9wddS-13" value="&lt;p style=&quot;margin:0px;margin-top:4px;text-align:center;&quot;&gt;&lt;b&gt;DespesaFactory&lt;/b&gt;&lt;/p&gt;&lt;hr size=&quot;1&quot; style=&quot;border-style:solid;&quot;&gt;&lt;p style=&quot;margin:0px;margin-left:4px;&quot;&gt;+ criarDespesa(&lt;span style=&quot;background-color: initial;&quot;&gt;valor: double,&lt;/span&gt;&lt;/p&gt;&lt;p style=&quot;margin:0px;margin-left:4px;&quot;&gt;data: Date,&amp;nbsp;&lt;span style=&quot;background-color: initial;&quot;&gt;descricao: String,&lt;/span&gt;&lt;/p&gt;&lt;p style=&quot;margin:0px;margin-left:4px;&quot;&gt;categoria: Categoria): Despesas&lt;/p&gt;" style="verticalAlign=top;align=left;overflow=fill;html=1;whiteSpace=wrap;" parent="1" vertex="1">
          <mxGeometry x="880" y="520" width="200" height="160" as="geometry" />
        </mxCell>
        <mxCell id="r61PQTojIXypBUC9wddS-20" value="&lt;p style=&quot;margin:0px;margin-top:4px;text-align:center;&quot;&gt;&lt;b&gt;Sujeito&lt;/b&gt;&lt;/p&gt;&lt;hr size=&quot;1&quot; style=&quot;border-style:solid;&quot;&gt;&lt;p style=&quot;margin:0px;margin-left:4px;&quot;&gt;- valorMeta: double&lt;/p&gt;&lt;p style=&quot;margin:0px;margin-left:4px;&quot;&gt;- dataLimite: Date&lt;/p&gt;&lt;hr size=&quot;1&quot; style=&quot;border-style:solid;&quot;&gt;&lt;p style=&quot;margin:0px;margin-left:4px;&quot;&gt;+ getValorMeta(): double&lt;/p&gt;&lt;p style=&quot;margin:0px;margin-left:4px;&quot;&gt;+ getDataLimite(): Date&lt;/p&gt;" style="verticalAlign=top;align=left;overflow=fill;html=1;whiteSpace=wrap;" parent="1" vertex="1">
          <mxGeometry x="1360" y="440" width="160" height="120" as="geometry" />
        </mxCell>
        <mxCell id="r61PQTojIXypBUC9wddS-23" value="&lt;p style=&quot;margin:0px;margin-top:4px;text-align:center;&quot;&gt;&lt;i&gt;&amp;lt;&amp;lt;Interface&amp;gt;&amp;gt;&lt;/i&gt;&lt;br&gt;&lt;b&gt;Observer&lt;/b&gt;&lt;/p&gt;&lt;hr size=&quot;1&quot; style=&quot;border-style:solid;&quot;&gt;&lt;p style=&quot;margin:0px;margin-left:4px;&quot;&gt;+ atualizar(): void&lt;br&gt;&lt;/p&gt;" style="verticalAlign=top;align=left;overflow=fill;html=1;whiteSpace=wrap;" parent="1" vertex="1">
          <mxGeometry x="1360" y="600" width="160" height="80" as="geometry" />
        </mxCell>
        <mxCell id="r61PQTojIXypBUC9wddS-24" value="observation" style="endArrow=none;html=1;endSize=12;startArrow=none;startSize=14;startFill=0;edgeStyle=orthogonalEdgeStyle;align=center;verticalAlign=bottom;endFill=0;rounded=0;exitX=0.5;exitY=1;exitDx=0;exitDy=0;" parent="1" edge="1">
          <mxGeometry x="1" relative="1" as="geometry">
            <mxPoint x="1439.8100000000002" y="599.98" as="sourcePoint" />
            <mxPoint x="1439.95" y="599.98" as="targetPoint" />
            <Array as="points">
              <mxPoint x="1439.81" y="559.98" />
              <mxPoint x="1439.81" y="559.98" />
            </Array>
            <mxPoint as="offset" />
          </mxGeometry>
        </mxCell>
        <mxCell id="r61PQTojIXypBUC9wddS-25" value="&lt;p style=&quot;margin:0px;margin-top:4px;text-align:center;&quot;&gt;&lt;b&gt;DespesaConcreta&lt;/b&gt;&lt;/p&gt;&lt;hr size=&quot;1&quot; style=&quot;border-style:solid;&quot;&gt;&lt;p style=&quot;margin:0px;margin-left:4px;&quot;&gt;&lt;br&gt;&lt;/p&gt;&lt;p style=&quot;margin:0px;margin-left:4px;&quot;&gt;&lt;br&gt;&lt;/p&gt;" style="verticalAlign=top;align=left;overflow=fill;html=1;whiteSpace=wrap;" parent="1" vertex="1">
          <mxGeometry x="1120" y="520" width="160" height="160" as="geometry" />
        </mxCell>
        <mxCell id="r61PQTojIXypBUC9wddS-31" value="" style="endArrow=none;startArrow=none;endFill=0;startFill=0;endSize=8;html=1;verticalAlign=bottom;labelBackgroundColor=none;strokeWidth=3;rounded=0;" parent="1" edge="1">
          <mxGeometry width="160" relative="1" as="geometry">
            <mxPoint x="1080" y="600" as="sourcePoint" />
            <mxPoint x="1120" y="600" as="targetPoint" />
            <Array as="points" />
          </mxGeometry>
        </mxCell>
        <mxCell id="r61PQTojIXypBUC9wddS-33" value="" style="endArrow=none;startArrow=none;endFill=0;startFill=0;endSize=8;html=1;verticalAlign=bottom;labelBackgroundColor=none;strokeWidth=3;rounded=0;entryX=0;entryY=0.5;entryDx=0;entryDy=0;" parent="1" target="r61PQTojIXypBUC9wddS-8" edge="1">
          <mxGeometry width="160" relative="1" as="geometry">
            <mxPoint x="1060" y="380" as="sourcePoint" />
            <mxPoint x="1100" y="384.40999999999997" as="targetPoint" />
            <Array as="points" />
          </mxGeometry>
        </mxCell>
        <mxCell id="r61PQTojIXypBUC9wddS-36" value="João" style="shape=umlActor;verticalLabelPosition=bottom;verticalAlign=top;html=1;" parent="1" vertex="1">
          <mxGeometry x="70" y="380" width="40" height="80" as="geometry" />
        </mxCell>
        <mxCell id="r61PQTojIXypBUC9wddS-37" value="" style="shape=ellipse;container=1;horizontal=1;horizontalStack=0;resizeParent=1;resizeParentMax=0;resizeLast=0;html=1;dashed=0;collapsible=0;" parent="1" vertex="1">
          <mxGeometry x="260" y="270" width="160" height="110" as="geometry" />
        </mxCell>
        <mxCell id="r61PQTojIXypBUC9wddS-38" value="UseCase2" style="html=1;strokeColor=none;fillColor=none;align=center;verticalAlign=middle;rotatable=0;whiteSpace=wrap;" parent="r61PQTojIXypBUC9wddS-37" vertex="1">
          <mxGeometry width="160" height="27.5" as="geometry" />
        </mxCell>
        <mxCell id="r61PQTojIXypBUC9wddS-39" value="" style="line;strokeWidth=1;fillColor=none;rotatable=0;labelPosition=right;points=[];portConstraint=eastwest;dashed=0;resizeWidth=1;" parent="r61PQTojIXypBUC9wddS-37" vertex="1">
          <mxGeometry x="8" y="27.5" width="144" height="9.166666666666666" as="geometry" />
        </mxCell>
        <mxCell id="r61PQTojIXypBUC9wddS-41" value="Adicionar Meta" style="text;html=1;align=left;verticalAlign=middle;rotatable=0;spacingLeft=25;fillColor=none;strokeColor=none;whiteSpace=wrap;" parent="r61PQTojIXypBUC9wddS-37" vertex="1">
          <mxGeometry x="8" y="27.5" width="160" height="72.5" as="geometry" />
        </mxCell>
        <mxCell id="r61PQTojIXypBUC9wddS-53" value="" style="shape=ellipse;container=1;horizontal=1;horizontalStack=0;resizeParent=1;resizeParentMax=0;resizeLast=0;html=1;dashed=0;collapsible=0;" parent="1" vertex="1">
          <mxGeometry x="260" y="390" width="160" height="110" as="geometry" />
        </mxCell>
        <mxCell id="r61PQTojIXypBUC9wddS-54" value="UseCase3" style="html=1;strokeColor=none;fillColor=none;align=center;verticalAlign=middle;rotatable=0;whiteSpace=wrap;" parent="r61PQTojIXypBUC9wddS-53" vertex="1">
          <mxGeometry width="160" height="27.5" as="geometry" />
        </mxCell>
        <mxCell id="r61PQTojIXypBUC9wddS-55" value="" style="line;strokeWidth=1;fillColor=none;rotatable=0;labelPosition=right;points=[];portConstraint=eastwest;dashed=0;resizeWidth=1;" parent="r61PQTojIXypBUC9wddS-53" vertex="1">
          <mxGeometry x="8" y="27.5" width="144" height="9.166666666666666" as="geometry" />
        </mxCell>
        <mxCell id="r61PQTojIXypBUC9wddS-56" value="Visualizar Despesas" style="text;html=1;align=left;verticalAlign=middle;rotatable=0;spacingLeft=25;fillColor=none;strokeColor=none;whiteSpace=wrap;" parent="r61PQTojIXypBUC9wddS-53" vertex="1">
          <mxGeometry y="27.5" width="160" height="72.5" as="geometry" />
        </mxCell>
        <mxCell id="r61PQTojIXypBUC9wddS-58" value="" style="shape=ellipse;container=1;horizontal=1;horizontalStack=0;resizeParent=1;resizeParentMax=0;resizeLast=0;html=1;dashed=0;collapsible=0;" parent="1" vertex="1">
          <mxGeometry x="220" y="520" width="160" height="110" as="geometry" />
        </mxCell>
        <mxCell id="r61PQTojIXypBUC9wddS-59" value="UseCase4" style="html=1;strokeColor=none;fillColor=none;align=center;verticalAlign=middle;rotatable=0;whiteSpace=wrap;" parent="r61PQTojIXypBUC9wddS-58" vertex="1">
          <mxGeometry width="160" height="27.5" as="geometry" />
        </mxCell>
        <mxCell id="r61PQTojIXypBUC9wddS-60" value="" style="line;strokeWidth=1;fillColor=none;rotatable=0;labelPosition=right;points=[];portConstraint=eastwest;dashed=0;resizeWidth=1;" parent="r61PQTojIXypBUC9wddS-58" vertex="1">
          <mxGeometry x="8" y="27.5" width="144" height="9.166666666666666" as="geometry" />
        </mxCell>
        <mxCell id="r61PQTojIXypBUC9wddS-61" value="Visualizar Metas" style="text;html=1;align=left;verticalAlign=middle;rotatable=0;spacingLeft=25;fillColor=none;strokeColor=none;whiteSpace=wrap;" parent="r61PQTojIXypBUC9wddS-58" vertex="1">
          <mxGeometry y="27.5" width="160" height="72.5" as="geometry" />
        </mxCell>
        <mxCell id="r61PQTojIXypBUC9wddS-62" value="" style="shape=ellipse;container=1;horizontal=1;horizontalStack=0;resizeParent=1;resizeParentMax=0;resizeLast=0;html=1;dashed=0;collapsible=0;" parent="1" vertex="1">
          <mxGeometry x="150" y="170" width="160" height="110" as="geometry" />
        </mxCell>
        <mxCell id="r61PQTojIXypBUC9wddS-63" value="UseCase1" style="html=1;strokeColor=none;fillColor=none;align=center;verticalAlign=middle;rotatable=0;whiteSpace=wrap;" parent="r61PQTojIXypBUC9wddS-62" vertex="1">
          <mxGeometry width="160" height="27.5" as="geometry" />
        </mxCell>
        <mxCell id="r61PQTojIXypBUC9wddS-64" value="" style="line;strokeWidth=1;fillColor=none;rotatable=0;labelPosition=right;points=[];portConstraint=eastwest;dashed=0;resizeWidth=1;" parent="r61PQTojIXypBUC9wddS-62" vertex="1">
          <mxGeometry x="8" y="27.5" width="144" height="9.166666666666666" as="geometry" />
        </mxCell>
        <mxCell id="r61PQTojIXypBUC9wddS-65" value="Registrar despesa" style="text;html=1;align=left;verticalAlign=middle;rotatable=0;spacingLeft=25;fillColor=none;strokeColor=none;whiteSpace=wrap;" parent="r61PQTojIXypBUC9wddS-62" vertex="1">
          <mxGeometry y="27.5" width="160" height="72.5" as="geometry" />
        </mxCell>
        <mxCell id="r61PQTojIXypBUC9wddS-67" value="" style="verticalLabelPosition=bottom;verticalAlign=top;html=1;strokeWidth=2;shape=mxgraph.arrows2.arrow;dy=0.6;dx=40;notch=0;rotation=-45;" parent="1" vertex="1">
          <mxGeometry x="96.04" y="304.57" width="91.46" height="36.46" as="geometry" />
        </mxCell>
        <mxCell id="r61PQTojIXypBUC9wddS-71" value="" style="verticalLabelPosition=bottom;verticalAlign=top;html=1;strokeWidth=2;shape=mxgraph.arrows2.arrow;dy=0.6;dx=40;notch=0;rotation=-15;" parent="1" vertex="1">
          <mxGeometry x="128.54000000000002" y="361.77" width="91.46" height="36.46" as="geometry" />
        </mxCell>
        <mxCell id="r61PQTojIXypBUC9wddS-72" value="" style="verticalLabelPosition=bottom;verticalAlign=top;html=1;strokeWidth=2;shape=mxgraph.arrows2.arrow;dy=0.6;dx=40;notch=0;rotation=0;" parent="1" vertex="1">
          <mxGeometry x="140" y="426.77" width="91.46" height="36.46" as="geometry" />
        </mxCell>
        <mxCell id="r61PQTojIXypBUC9wddS-73" value="" style="verticalLabelPosition=bottom;verticalAlign=top;html=1;strokeWidth=2;shape=mxgraph.arrows2.arrow;dy=0.6;dx=40;notch=0;rotation=30;" parent="1" vertex="1">
          <mxGeometry x="110" y="489.99999999999994" width="91.46" height="36.46" as="geometry" />
        </mxCell>
      </root>
    </mxGraphModel>
  </diagram>
</mxfile>
